<?xml version="1.0" encoding="utf-8"?>
<!-- Generator: Adobe Illustrator 26.3.1, SVG Export Plug-In . SVG Version: 6.00 Build 0)  -->
<svg version="1.1" id="_イヤー_1" xmlns="http://www.w3.org/2000/svg" xmlns:xlink="http://www.w3.org/1999/xlink" x="0px"
	 y="0px" viewBox="0 0 250 250" style="enable-background:new 0 0 250 250;" xml:space="preserve">
<style type="text/css">
	.st0{fill:#5928B1;}
	.st1{fill:#764BC4;}
	.st2{fill:#BBA5E1;}
</style>
<g>
	
		<g transform="translate(203.90917691579924,113.15405493431763)translate(56,51.40983606557378)rotate(0)translate(-56,-51.40983606557378) scale(0.9186653105416844,0.9186653105416844)">
		<g>
			<path class="st0" d="M-36.1-47.7c-17.9,5.1-44.4,15.6-68.6,37.3c-24.3,22.7-7.8,42.9-7.6,43.1c0,0-8.9-16.3,12.7-36.3
				c0.3-0.2,27.8-23.8,67.9-35.1c5.1-1.4,10.3-2.6,15.3-3.6l0.4-0.1l6.4-10.3l-1.6,0.1C-11.3-52.6-21.4-51.9-36.1-47.7z"/>
			<path class="st1" d="M-8.5-76.7c-4.1-3.4-8.2-6.2-8.3-6.2l-0.2-0.2l-0.3,0c-0.1,0-11.2,1.4-26.5,5.7
				c-27.4,7.7-64.3,23.6-84.2,55.2C-137.6-7.9-130,9.3-130,9.3l-0.2-4.4c0-0.5-1.3-46.7,94.5-73.8c8.4-2.4,17.4-4.5,26.8-6.5
				l1.6-0.3L-8.5-76.7z"/>
			<path class="st1" d="M-2.7-70.7c-0.1,0-12.7,1.3-30.3,6.3c-18.6,5.2-45.7,15.4-69,34.1C-115.9-19.7-124.6-6.9-126,4.8
				c-0.7,5.7,6.1,17.8,6.1,17.8l-1.4-4.3c-0.1-0.2-6.1-19.8,24.5-42.6c17.2-12.7,35-21.5,56.3-27.5c10.9-3.1,21.4-5.1,33-7.3
				l0.4-0.1l0.2-0.4c0.9-1.9,5-10,5.1-10.1l0.7-1.3L-2.7-70.7z"/>
			<path class="st2" d="M-136.7-11.2c1.2-18.4,15.2-35.3,41.8-50.5c14-8.7,29.7-15.5,46.6-20.2c14.3-4,26.4-5.2,26.4-5.2l-9.7-7
				c-0.1,0-9.1,1.1-21.9,4.7c-82.2,23.2-92.4,63.1-91.5,79.2c1.6,28,34.9,47.9,34.9,47.9S-138.4,16.2-136.7-11.2z"/>
		</g>
	</g>
	
		<g transform="translate(296.0747398297067,279.74856150255147)translate(-56,-51.40983606557378)rotate(0)translate(56,51.40983606557378) scale(-0.9186653105416844,-0.9186653105416844)">
		<g>
			<path class="st0" d="M236,107.8c-17.9,5.1-44.4,15.6-68.6,37.3c-24.3,22.7-7.8,42.9-7.6,43.1c0,0-8.9-16.3,12.7-36.3
				c0.3-0.2,27.8-23.8,67.9-35.1c5.1-1.4,10.3-2.6,15.3-3.6l0.4-0.1l6.4-10.3l-1.6,0.1C260.8,102.9,250.7,103.7,236,107.8z"/>
			<path class="st1" d="M263.6,78.8c-4.1-3.4-8.2-6.2-8.3-6.2l-0.2-0.2l-0.3,0c-0.1,0-11.2,1.4-26.5,5.7
				c-27.4,7.7-64.3,23.6-84.2,55.2c-9.5,14.3-1.8,31.5-1.8,31.5l-0.2-4.4c0-0.5-1.3-46.7,94.5-73.8c8.4-2.4,17.4-4.5,26.8-6.5
				l1.6-0.3L263.6,78.8z"/>
			<path class="st1" d="M269.4,84.9c-0.1,0-12.7,1.3-30.3,6.3c-18.6,5.2-45.7,15.4-69,34.1c-13.8,10.6-22.5,23.4-23.9,35.1
				c-0.7,5.7,6.1,17.8,6.1,17.8l-1.4-4.3c-0.1-0.2-6.1-19.8,24.5-42.6c17.2-12.7,35-21.5,56.3-27.5c10.9-3.1,21.4-5.1,33-7.3
				l0.4-0.1l0.2-0.4c0.9-1.9,5-10,5.1-10.1l0.7-1.3L269.4,84.9z"/>
			<path class="st2" d="M135.4,144.4c1.2-18.4,15.2-35.3,41.8-50.5c14-8.7,29.7-15.5,46.6-20.2c14.3-4,26.4-5.2,26.4-5.2l-9.7-7
				c-0.1,0-9.1,1.1-21.9,4.7c-82.2,23.2-92.4,63.1-91.5,79.2c1.6,28,34.9,47.9,34.9,47.9S133.7,171.8,135.4,144.4z"/>
		</g>
	</g>
</g>
</svg>
