<svg width="36" height="36" fill="none" xmlns="http://www.w3.org/2000/svg"><rect width="36" height="36" rx="18" fill="white" fill-opacity="0.9"/><path fill-rule="evenodd" clip-rule="evenodd" d="M18 36C27.9409 36 36 27.9409 36 18C36 8.05913 27.9409 0 18 0C8.05913 0 0 8.05913 0 18C0 27.9409 8.05913 36 18 36ZM18.0734 34.3108C27.0815 34.3108 34.3834 27.0081 34.3834 18.0008C34.3834 8.99362 27.0815 1.69012 18.0734 1.69012C9.06545 1.69012 1.76363 8.99193 1.76363 18C1.76363 27.0081 9.06545 34.3108 18.0734 34.3108ZM18 33.0612C26.3183 33.0612 33.0612 26.3183 33.0612 18C33.0612 9.68175 26.3183 2.93878 18 2.93878C9.68175 2.93878 2.93878 9.68175 2.93878 18C2.93878 26.3183 9.68175 33.0612 18 33.0612ZM18.0371 31.2249C25.3609 31.2249 31.2983 25.2875 31.2983 17.9637C31.2983 10.64 25.3609 4.70242 18.0371 4.70242C10.7134 4.70242 4.77582 10.6391 4.77582 17.9637C4.77582 25.2883 10.7125 31.2249 18.0371 31.2249ZM17.9258 20.4457C17.1887 20.4457 16.4728 20.5073 15.7796 20.6247L16.8468 18.7717C17.2072 18.748 17.5677 18.7362 17.9258 18.7362C18.7641 18.7362 19.6167 18.8054 20.4407 18.938L16.2971 11.7408L9.3989 23.7214L8.41283 22.0093L16.2811 8.34356L16.2971 8.37149L16.3124 8.34441L25.8083 24.8366H23.8371L21.6175 20.9818C20.4609 20.6323 19.225 20.4457 17.9258 20.4457ZM26.4221 23.7501L17.2283 7.78303H19.1996L27.4073 22.038L26.4221 23.7501ZM17.2976 15.6606L13.523 22.217C14.8738 21.8083 16.4635 21.626 17.9637 21.626C18.0853 21.626 18.2068 21.6276 18.3284 21.6302C19.1802 21.6504 20.0414 21.7408 20.8662 21.8953L22.1257 24.0828C20.8366 23.6125 19.4411 23.3356 17.9637 23.3356C15.7788 23.3356 13.7721 23.8776 12.0245 24.8197L12.0523 24.77L12.0144 24.8358H10.0431L16.3124 13.9477L17.2976 15.6606Z" fill="url(#paint0_linear_589_1593)"/><defs><linearGradient id="paint0_linear_589_1593" x1="28.3632" y1="33.8791" x2="7.3141" y2="1.6261" gradientUnits="userSpaceOnUse"><stop offset="0.0076157" stop-color="#645AFF"/><stop offset="0.5038" stop-color="#E40C5B"/><stop offset="1" stop-color="#FF4C3B"/></linearGradient></defs></svg>