<svg width="36" height="36" fill="none" xmlns="http://www.w3.org/2000/svg"><g clip-path="url(#clip0_1020_6150)"><rect width="36" height="36" rx="18" fill="white"/><g clip-path="url(#clip1_1020_6150)"><path d="M35.9578 16.7785C35.2831 6.86077 26.6964 -0.632411 16.7785 0.042203C11.8379 0.378252 7.4998 2.67862 4.47256 6.12809L4.47258 6.12808L4.46413 6.12198C4.44373 6.1502 4.42468 6.17804 4.40442 6.20626C1.3974 9.67256 -0.293825 14.2816 0.0421833 19.2215C0.0742021 19.6922 0.129611 20.1554 0.196565 20.6147C0.196585 20.6148 0.196585 20.6148 0.196606 20.6149C0.199621 20.6357 0.202698 20.6563 0.205614 20.6771C0.250876 20.9801 0.303428 21.2803 0.363391 21.5778C0.363431 21.5779 0.363451 21.5782 0.363491 21.5783C0.36459 21.5837 0.365628 21.5891 0.366686 21.5945C0.421277 21.8639 0.481919 22.1308 0.548273 22.3955L0.548393 22.396C0.548453 22.3962 0.548513 22.3964 0.548554 22.3966C2.62734 30.6868 10.3947 36.5582 19.2215 35.9578C29.1392 35.2832 36.6324 26.6963 35.9578 16.7785ZM32.0398 17.045C32.1228 18.266 32.046 19.4616 31.8286 20.6118C31.8258 20.6052 31.8238 20.5982 31.821 20.5918V20.5916C30.5161 17.4019 27.9348 15.0991 25.6648 13.827C26.1242 8.42219 24.2906 6.14519 22.2154 5.7747C22.159 5.76384 22.1022 5.75458 22.0445 5.74742C20.3975 5.53618 18.8912 6.70038 18.6803 8.34734C18.469 9.99439 19.6332 11.5006 21.2802 11.712C21.4238 11.7301 21.5659 11.7352 21.7067 11.733C21.7158 11.9154 21.7216 12.1092 21.7231 12.3119C19.8043 11.8364 18.0106 11.7433 16.3752 11.8904C15.7637 11.9311 15.1517 12.0082 14.543 12.1219C14.7472 10.2969 15.4319 8.24789 16.7605 6.74842C18.0449 5.29891 19.9544 4.4681 22.0375 4.68131C22.4324 4.72171 22.8538 4.81867 23.2331 4.94606C23.2505 4.95192 23.2691 4.95688 23.2862 4.96286C23.2865 4.96253 23.2868 4.96207 23.2871 4.96172C28.112 6.92729 31.663 11.5064 32.0398 17.045ZM19.4939 19.7944C19.4926 19.7963 19.4912 19.7982 19.4899 19.8002C19.0604 20.4197 18.5496 21.0305 17.95 21.6212C17.0512 20.6648 16.329 19.6349 15.7812 18.5694C15.7531 18.5123 15.7231 18.458 15.6958 18.4C15.6947 18.3979 15.6937 18.3958 15.6926 18.3936C15.3708 17.7116 15.0972 16.9636 14.8854 16.1486C16.1645 15.8477 17.4188 15.737 18.6167 15.7954C18.6802 15.7996 18.7422 15.8008 18.8062 15.806C18.8084 15.8062 18.8108 15.8064 18.8132 15.8065C19.5635 15.8687 20.3468 16.0055 21.1572 16.2289C20.7784 17.4865 20.2471 18.6277 19.5979 19.6356C19.5625 19.6885 19.5305 19.7416 19.4939 19.7944ZM13.3433 4.72312C13.3399 4.72745 13.3362 4.73154 13.3328 4.73588V4.7359C11.2239 7.45949 10.5199 10.8443 10.5525 13.4458C5.64235 15.7502 4.58726 18.4766 5.30405 20.459C5.32283 20.5133 5.34322 20.5672 5.36585 20.6207C6.00644 22.1527 7.76779 22.875 9.29958 22.2342C10.8316 21.5936 11.5539 19.8323 10.9135 18.3004C10.8574 18.1668 10.7907 18.0412 10.7184 17.9204C10.8736 17.8201 11.0403 17.7172 11.2172 17.6132C11.7648 19.5131 12.5749 21.1201 13.5202 22.463C13.8606 22.9714 14.2325 23.4618 14.6344 23.9311C12.9516 24.6672 10.8343 25.099 8.87101 24.698C6.97349 24.3104 5.29924 23.0722 4.44234 21.1615C4.27991 20.7994 4.15325 20.3861 4.07387 19.9939C4.02503 19.6512 3.98411 19.3058 3.96025 18.955C3.52166 12.5072 7.52192 6.76708 13.3433 4.72312ZM18.955 32.0398C15.1261 32.3002 11.547 30.9942 8.84198 28.6728C12.2551 29.1373 15.5384 28.0546 17.7751 26.7256C22.2278 29.8282 25.1176 29.379 26.4763 27.7667C26.514 27.7232 26.5504 27.6787 26.5854 27.6323C27.592 26.3116 27.3368 24.425 26.016 23.4188C24.6952 22.4123 22.8086 22.6675 21.8022 23.9881C21.7146 24.1034 21.6391 24.2239 21.5707 24.3469C21.4074 24.2633 21.2359 24.171 21.0587 24.0704C22.4315 22.6456 23.4096 21.1378 24.1004 19.6469C24.3709 19.0969 24.6102 18.5284 24.8161 17.9443C26.2957 19.0337 27.7296 20.6521 28.3643 22.5539C28.9774 24.391 28.7422 26.4601 27.516 28.1575C27.2836 28.4792 26.9888 28.7957 26.6888 29.0605C26.6845 29.0644 26.6802 29.0684 26.676 29.0724C24.5308 30.7584 21.8765 31.841 18.955 32.0398Z" fill="url(#paint0_linear_1020_6150)"/><path style="mix-blend-mode:overlay" opacity="0.9" d="M22.2154 5.77472C22.159 5.76385 22.1022 5.75458 22.0445 5.74743C21.7531 5.71006 21.4666 5.71777 21.1903 5.76157C22.9123 6.69832 24.1678 9.30838 23.5078 14.4569C23.2891 16.1621 22.782 17.7847 22.0499 19.2738C21.4565 20.5541 20.6494 21.8466 19.5642 23.0887C20.0854 23.4796 20.5934 23.8067 21.0587 24.0704C22.4315 22.6456 23.4096 21.1378 24.1004 19.6469C24.8327 18.1579 25.3397 16.5352 25.5583 14.8301C26.3442 8.69987 24.4148 6.16737 22.2154 5.77472Z" fill="url(#paint1_radial_1020_6150)"/><g style="mix-blend-mode:overlay" opacity="0.8"><path d="M23.5077 14.4569C24.1677 9.30841 22.9123 6.69835 21.1903 5.7616C21.1231 5.77226 21.0571 5.78659 20.9912 5.80171C22.6771 6.77078 23.8901 9.37838 23.2389 14.4569C23.0203 16.1621 22.5133 17.7848 21.7811 19.2738C21.2075 20.5118 20.4317 21.7607 19.4003 22.9649C19.4552 23.0074 19.5097 23.0478 19.5642 23.0888C20.6493 21.8466 21.4566 20.5541 22.0499 19.2738C22.782 17.7848 23.2891 16.1621 23.5077 14.4569Z" fill="white"/></g><path style="mix-blend-mode:overlay" opacity="0.5" d="M16.9627 26.134C16.801 26.0108 16.6452 25.8817 16.4894 25.7527C13.9483 26.8129 10.4257 27.4776 6.92786 26.6659C7.50064 27.396 8.13986 28.0701 8.84199 28.6728C12.2551 29.1373 15.5384 28.0545 17.7751 26.7256C17.5097 26.5406 17.2394 26.3449 16.9627 26.134Z" fill="url(#paint2_radial_1020_6150)"/><path style="mix-blend-mode:overlay" opacity="0.6" d="M16.4895 25.7528C16.4117 25.6882 16.3333 25.6244 16.257 25.5585C13.6966 26.5816 10.1579 27.1932 6.66797 26.3235C6.753 26.4389 6.83946 26.5533 6.92788 26.666C10.4257 27.4776 13.9483 26.813 16.4895 25.7528Z" fill="url(#paint3_linear_1020_6150)"/><path style="mix-blend-mode:overlay" opacity="0.9" d="M5.30483 20.4621C5.32361 20.5163 5.34399 20.5701 5.36663 20.6236C5.47999 20.8948 5.62992 21.139 5.80596 21.3563C5.75624 19.3967 7.3889 17.0044 12.1777 15.0018C13.7637 14.3385 15.4225 13.9662 17.0781 13.8558C18.4836 13.7295 20.0066 13.7824 21.6248 14.101C21.7027 13.4543 21.732 12.8507 21.7278 12.3159C19.8074 11.8395 18.0124 11.7463 16.376 11.8934C14.7204 12.0038 13.0615 12.376 11.4755 13.0392C5.77369 15.4238 4.54513 18.3609 5.30483 20.4621Z" fill="url(#paint4_radial_1020_6150)"/><g style="mix-blend-mode:overlay" opacity="0.8"><path d="M12.1778 15.0018C7.38897 17.0043 5.75631 19.3967 5.80603 21.3563C5.84888 21.4092 5.89428 21.4591 5.9403 21.5085C5.93665 19.5642 7.58841 17.2099 12.312 15.2345C13.8981 14.5712 15.557 14.199 17.2126 14.0886C18.5715 13.9664 20.0411 14.0137 21.5996 14.3048C21.6089 14.2361 21.6167 14.1686 21.6249 14.1009C20.0067 13.7823 18.4836 13.7294 17.0782 13.8558C15.4226 13.9662 13.7638 14.3384 12.1778 15.0018Z" fill="white"/></g><path style="mix-blend-mode:overlay" opacity="0.4" d="M25.5628 14.8313C25.537 15.033 25.5031 15.2324 25.4692 15.4319C27.6579 17.1024 29.9949 19.8207 31.0408 23.2557C31.3868 22.3947 31.651 21.504 31.8218 20.5946C30.5175 17.4066 27.9382 15.1044 25.6689 13.8319C25.6416 14.1543 25.6071 14.4863 25.5628 14.8313Z" fill="url(#paint5_radial_1020_6150)"/><path style="mix-blend-mode:overlay" opacity="0.5" d="M25.4693 15.4319C25.4524 15.5315 25.4362 15.6313 25.4172 15.7303C27.5836 17.436 29.8827 20.1948 30.8744 23.6521C30.9318 23.5207 30.9876 23.3887 31.0409 23.2558C29.995 19.8208 27.658 17.1024 25.4693 15.4319Z" fill="url(#paint6_linear_1020_6150)"/><path style="mix-blend-mode:overlay" opacity="0.9" d="M26.4784 27.7626C26.5161 27.7191 26.5524 27.6746 26.5875 27.6282C26.7656 27.3945 26.9021 27.1425 27.0023 26.8814C25.3301 27.9043 22.4421 27.6865 18.3134 24.5406C16.9458 23.4987 15.7941 22.2482 14.8707 20.8697C14.0585 19.7156 13.3428 18.3703 12.8096 16.8096C12.2106 17.0654 11.6732 17.3419 11.2122 17.613C11.7598 19.5141 12.5765 21.1153 13.5222 22.4589C14.4456 23.8376 15.5974 25.088 16.9648 26.13C21.8807 29.8756 25.0386 29.471 26.4784 27.7626Z" fill="url(#paint7_radial_1020_6150)"/><g style="mix-blend-mode:overlay" opacity="0.8"><path d="M18.3134 24.5407C22.4421 27.6866 25.3301 27.9044 27.0023 26.8815C27.0267 26.8179 27.0473 26.7536 27.0671 26.689C25.385 27.6644 22.5203 27.4111 18.4476 24.308C17.0802 23.266 15.9285 22.0156 15.0051 20.6371C14.2198 19.5213 13.5261 18.2248 12.9988 16.7296C12.9347 16.7559 12.8723 16.7829 12.8096 16.8097C13.3429 18.3704 14.0585 19.7157 14.8707 20.8697C15.7941 22.2483 16.9458 23.4988 18.3134 24.5407Z" fill="white"/></g><path style="mix-blend-mode:overlay" opacity="0.3" d="M11.473 13.0339C11.6607 12.9554 11.8504 12.8851 12.04 12.8148C12.3923 10.0839 13.578 6.70085 16.0299 4.07751C15.1113 4.20852 14.2078 4.42501 13.3348 4.73179C11.226 7.45539 10.522 10.8402 10.5545 13.4416C10.8475 13.3042 11.1522 13.168 11.473 13.0339Z" fill="url(#paint8_radial_1020_6150)"/><path style="mix-blend-mode:overlay" opacity="0.4" d="M12.0399 12.8148C12.1347 12.7796 12.2292 12.7437 12.3244 12.7105C12.7184 9.9816 13.9581 6.61118 16.4564 4.02368C16.3138 4.03958 16.1716 4.05733 16.0298 4.07754C13.578 6.70087 12.3922 10.084 12.0399 12.8148Z" fill="url(#paint9_linear_1020_6150)"/><path style="mix-blend-mode:multiply" opacity="0.4" d="M16.7786 0.0422466C11.8379 0.378296 7.49985 2.67866 4.47261 6.12813C4.44974 6.15421 4.42701 6.18033 4.4043 6.20654L4.40448 6.2063C4.99384 6.7909 6.91998 7.94363 7.70064 8.42433C9.23343 6.7759 11.1604 5.48965 13.3433 4.72316C13.4959 4.52671 13.6539 4.33288 13.8213 4.14397C15.8545 1.84963 18.6311 0.636944 21.8516 0.636944C22.21 0.636944 22.9401 0.694 22.9558 0.69516C21.0034 0.134241 18.9226 -0.103593 16.7786 0.0422466Z" fill="url(#paint10_linear_1020_6150)"/><path style="mix-blend-mode:multiply" opacity="0.4" d="M18.9549 32.0398C15.1261 32.3002 11.547 30.9943 8.84195 28.6729H8.84194H8.84192C8.59015 28.6385 8.33781 28.5974 8.08505 28.5458C5.08149 27.9321 2.64297 26.1339 1.03272 23.3448C0.853492 23.0344 0.693118 22.7181 0.548584 22.3969C2.62743 30.6869 10.3947 36.5583 19.2215 35.9578C19.2606 35.0489 18.9926 32.9398 18.9549 32.0398Z" fill="url(#paint11_linear_1020_6150)"/><path style="mix-blend-mode:multiply" opacity="0.4" d="M35.9578 16.7786C35.4048 16.7219 32.7039 16.9352 32.0398 17.0451C32.1228 18.2661 32.046 19.4616 31.8286 20.6118C31.9218 20.8406 32.0102 21.0729 32.0896 21.3107C33.0599 24.2187 32.7218 27.2297 31.1116 30.0188C30.9357 30.3233 30.7457 30.6152 30.5441 30.8961C30.5403 30.9014 30.5358 30.9075 30.5326 30.9119C30.5325 30.9122 30.5409 30.905 30.5457 30.9006C34.2016 27.3437 36.3311 22.2663 35.9578 16.7786Z" fill="url(#paint12_linear_1020_6150)"/><path style="mix-blend-mode:multiply" opacity="0.5" d="M22.0375 4.68128C22.4324 4.7217 22.8537 4.81865 23.233 4.94605C23.2504 4.9519 23.269 4.95685 23.2862 4.96284C23.2864 4.9625 23.2868 4.96205 23.287 4.96171C24.8398 5.59426 26.2594 6.49873 27.485 7.61752C27.4876 7.61971 27.4903 7.62151 27.4929 7.62371C28.0835 6.94846 29.2208 6.20647 29.2208 6.20647C29.2208 6.20647 27.4793 4.42516 24.8161 3.87234C22.9515 3.48534 18.746 3.11021 16.0936 7.62371C16.0936 7.62371 16.1042 7.61376 16.1197 7.59944C16.3159 7.30288 16.5245 7.01464 16.7605 6.74839C18.0448 5.29889 19.9544 4.46808 22.0375 4.68128Z" fill="url(#paint13_linear_1020_6150)"/><path style="mix-blend-mode:multiply" opacity="0.5" d="M27.5155 28.1559C27.2831 28.4777 26.9885 28.7941 26.6885 29.059C26.6747 29.0711 26.6611 29.0846 26.6473 29.0966C26.6476 29.097 26.6477 29.0976 26.6479 29.0979C25.3237 30.1263 23.8306 30.9036 22.249 31.4056C22.2457 31.4068 22.2429 31.4081 22.2396 31.4093C22.5291 32.2584 22.6031 33.6143 22.6031 33.6143C22.6031 33.6143 25.0164 32.9969 26.8269 30.9667C28.0943 29.5454 30.5219 26.091 27.9393 21.5372C27.9393 21.5372 27.9426 21.5514 27.9473 21.5719C28.1059 21.8902 28.2513 22.2149 28.3639 22.5523C28.977 24.3894 28.7418 26.4585 27.5155 28.1559Z" fill="url(#paint14_linear_1020_6150)"/><path style="mix-blend-mode:multiply" opacity="0.5" d="M4.44869 21.1669C4.28623 20.8046 4.15951 20.3912 4.08017 19.999C4.07652 19.981 4.07155 19.9624 4.06812 19.9445C4.06771 19.9445 4.06714 19.9444 4.06672 19.9444C3.83815 18.2834 3.91164 16.6017 4.26778 14.981C4.26835 14.9776 4.26859 14.9744 4.26917 14.971C3.38906 14.7971 2.17786 14.1832 2.17786 14.1832C2.17786 14.1832 1.5059 16.582 2.35884 19.1649C2.95595 20.9732 4.73382 24.8029 9.96881 24.8431C9.96881 24.8431 9.95491 24.8389 9.93475 24.8326C9.57982 24.811 9.22589 24.7744 8.87736 24.7033C6.97984 24.3157 5.30557 23.0774 4.44869 21.1669Z" fill="url(#paint15_linear_1020_6150)"/><path style="mix-blend-mode:multiply" opacity="0.6" d="M21.2802 11.712C21.4238 11.7302 21.5659 11.7353 21.7067 11.733C21.7067 11.733 21.6127 9.86277 21.383 8.9032C21.1534 7.94364 20.8147 7.3082 20.4426 6.94854C20.1761 6.69088 19.3346 6.37 18.6803 8.3474C18.469 9.99445 19.6332 11.5007 21.2802 11.712Z" fill="url(#paint16_linear_1020_6150)"/><path style="mix-blend-mode:multiply" opacity="0.5" d="M10.9144 18.3034C10.8582 18.1698 10.7916 18.0442 10.7193 17.9235C10.7193 17.9235 9.14659 18.94 8.4304 19.6187C7.71422 20.2973 7.33327 20.9083 7.20783 21.4104C7.11796 21.7701 7.2608 22.6593 9.30045 22.2372C10.8325 21.5967 11.5548 19.8353 10.9144 18.3034Z" fill="url(#paint17_linear_1020_6150)"/><path style="mix-blend-mode:multiply" opacity="0.6" d="M21.8046 23.9832C21.717 24.0986 21.6416 24.2191 21.5731 24.3421C21.5731 24.3421 23.2399 25.1958 24.1858 25.4767C25.1315 25.7576 25.8512 25.782 26.3488 25.6397C26.7052 25.5377 27.4038 24.9694 26.0184 23.414C24.6977 22.4075 22.8112 22.6626 21.8046 23.9832Z" fill="url(#paint18_linear_1020_6150)"/><path style="mix-blend-mode:multiply" opacity="0.3" d="M21.1572 16.2289C20.7784 17.4865 20.2471 18.6277 19.5979 19.6356C19.5625 19.6885 19.5305 19.7415 19.4939 19.7943C19.4926 19.7962 19.4912 19.7982 19.4899 19.8002C19.0604 20.4196 18.5496 21.0304 17.95 21.6212C18.362 22.0596 18.8077 22.484 19.2971 22.8867C19.9116 23.3718 20.514 23.7616 21.0587 24.0704C22.4315 22.6455 23.4096 21.1377 24.1004 19.6468C24.3709 19.0969 24.6102 18.5283 24.8161 17.9443C24.1828 17.4781 23.5412 17.1072 22.9501 16.8552C22.3388 16.5945 21.7412 16.3899 21.1572 16.2289Z" fill="url(#paint19_linear_1020_6150)"/><path style="mix-blend-mode:multiply" opacity="0.3" d="M8.84197 28.6728C12.2551 29.1373 15.5384 28.0545 17.7751 26.7257C17.5097 26.5406 17.2394 26.3449 16.9627 26.1341C16.0994 25.4762 15.3225 24.735 14.6343 23.9311C12.9516 24.6672 10.8343 25.0989 8.871 24.698C6.97347 24.3104 5.29922 23.0721 4.44232 21.1615C4.27989 20.7993 4.15323 20.3861 4.07385 19.9939C4.56974 23.4734 6.32558 26.5131 8.84197 28.6728Z" fill="url(#paint20_linear_1020_6150)"/><path style="mix-blend-mode:multiply" opacity="0.3" d="M17.9499 21.6213C17.0511 20.6649 16.3291 19.6349 15.7812 18.5694C15.7531 18.5123 15.7231 18.4581 15.6957 18.4C15.6946 18.398 15.6937 18.3958 15.6926 18.3936C15.3708 17.7117 15.0972 16.9636 14.8854 16.1487C14.301 16.2862 13.7119 16.4596 13.1198 16.6815C12.394 16.9706 11.7563 17.2966 11.2172 17.6133C11.7648 19.5131 12.5749 21.1202 13.5201 22.4631C13.8606 22.9714 14.2324 23.4618 14.6343 23.9312C15.3559 23.6157 15.9988 23.245 16.5133 22.8586C17.0438 22.4602 17.5191 22.0457 17.9499 21.6213Z" fill="url(#paint21_linear_1020_6150)"/><path style="mix-blend-mode:multiply" opacity="0.3" d="M13.3328 4.73586C11.224 7.45946 10.5199 10.8443 10.5525 13.4457C10.8465 13.3077 11.1525 13.1709 11.4747 13.0362C12.4748 12.618 13.5041 12.316 14.543 12.1219C14.7472 10.2968 15.4319 8.24787 16.7605 6.74838C18.0449 5.29889 19.9544 4.46807 22.0375 4.68128C22.4324 4.72169 22.8538 4.81864 23.2331 4.94604C23.2506 4.95189 23.2691 4.95684 23.2862 4.96283C23.2865 4.9625 23.2868 4.96204 23.2871 4.9617C21.368 4.1799 19.248 3.8104 17.045 3.96024C15.7512 4.04825 14.5115 4.31295 13.3433 4.72308C13.34 4.72742 13.3362 4.73151 13.3328 4.73585V4.73586Z" fill="url(#paint22_linear_1020_6150)"/><path style="mix-blend-mode:multiply" opacity="0.3" d="M31.821 20.5917C30.5162 17.4019 27.9348 15.0991 25.6648 13.827C25.6373 14.1505 25.6028 14.4838 25.5584 14.8301C25.4205 15.9053 25.1675 16.9476 24.8162 17.9443C26.2958 19.0337 27.7296 20.6521 28.3643 22.5539C28.9774 24.391 28.7422 26.4601 27.516 28.1575C27.2836 28.4793 26.9889 28.7957 26.6889 29.0605C26.6846 29.0644 26.6802 29.0685 26.6759 29.0724C29.3187 26.9955 31.1877 24.0019 31.8286 20.6118C31.8258 20.6052 31.8238 20.5983 31.821 20.5918V20.5917Z" fill="url(#paint23_linear_1020_6150)"/><path style="mix-blend-mode:multiply" opacity="0.3" d="M14.5324 14.2866C14.6122 14.9449 14.7332 15.5635 14.8854 16.1486C16.1645 15.8476 17.4188 15.737 18.6167 15.7953C18.6802 15.7995 18.7422 15.8007 18.8062 15.806C18.8084 15.8061 18.8108 15.8064 18.8132 15.8065C19.5635 15.8686 20.3468 16.0054 21.1572 16.2289C21.3306 15.6536 21.4751 15.0562 21.579 14.4321C21.6919 13.6562 21.7282 12.9387 21.7231 12.3118C19.8043 11.8364 18.0106 11.7433 16.3752 11.8903C15.7637 11.9311 15.1517 12.0081 14.543 12.1219C14.4554 12.9049 14.4548 13.6474 14.5324 14.2866Z" fill="url(#paint24_linear_1020_6150)"/></g></g><rect x="0.5" y="0.5" width="35" height="35" rx="17.5" stroke="white"/><defs><linearGradient id="paint0_linear_1020_6150" x1="5.71606" y1="30.2848" x2="28.669" y2="7.33177" gradientUnits="userSpaceOnUse"><stop offset="0.001139" stop-color="#E6007A"/><stop offset="0.207149" stop-color="#703AC2"/><stop offset="0.456011" stop-color="#0070EB"/><stop offset="0.768132" stop-color="#0297FB"/><stop offset="1" stop-color="#0AE2FF"/></linearGradient><radialGradient id="paint1_radial_1020_6150" cx="0" cy="0" r="1" gradientUnits="userSpaceOnUse" gradientTransform="translate(23.1307 14.3564) scale(6.84394 6.84395)"><stop stop-color="white"/><stop offset="1" stop-color="white" stop-opacity="0"/></radialGradient><radialGradient id="paint2_radial_1020_6150" cx="0" cy="0" r="1" gradientUnits="userSpaceOnUse" gradientTransform="translate(13.0145 27.0528) scale(3.98186)"><stop stop-color="white"/><stop offset="1" stop-color="white" stop-opacity="0"/></radialGradient><linearGradient id="paint3_linear_1020_6150" x1="7.03894" y1="26.3793" x2="10.8772" y2="26.326" gradientUnits="userSpaceOnUse"><stop stop-color="white" stop-opacity="0"/><stop offset="1" stop-color="white"/></linearGradient><radialGradient id="paint4_radial_1020_6150" cx="0" cy="0" r="1" gradientUnits="userSpaceOnUse" gradientTransform="translate(12.2791 15.3784) rotate(-120) scale(6.84395)"><stop stop-color="white"/><stop offset="1" stop-color="white" stop-opacity="0"/></radialGradient><radialGradient id="paint5_radial_1020_6150" cx="0" cy="0" r="1" gradientUnits="userSpaceOnUse" gradientTransform="translate(28.3327 17.7911) rotate(-120) scale(3.98186)"><stop stop-color="white"/><stop offset="1" stop-color="white" stop-opacity="0"/></radialGradient><linearGradient id="paint6_linear_1020_6150" x1="30.7372" y1="23.3029" x2="28.772" y2="20.0056" gradientUnits="userSpaceOnUse"><stop stop-color="white" stop-opacity="0"/><stop offset="1" stop-color="white"/></linearGradient><radialGradient id="paint7_radial_1020_6150" cx="0" cy="0" r="1" gradientUnits="userSpaceOnUse" gradientTransform="translate(18.2656 23.9479) rotate(120) scale(6.84395)"><stop stop-color="white"/><stop offset="1" stop-color="white" stop-opacity="0"/></radialGradient><radialGradient id="paint8_radial_1020_6150" cx="0" cy="0" r="1" gradientUnits="userSpaceOnUse" gradientTransform="translate(12.6515 9.15528) rotate(120) scale(3.98186)"><stop stop-color="white"/><stop offset="1" stop-color="white" stop-opacity="0"/></radialGradient><linearGradient id="paint9_linear_1020_6150" x1="16.2225" y1="4.31703" x2="14.3496" y2="7.66772" gradientUnits="userSpaceOnUse"><stop stop-color="white" stop-opacity="0"/><stop offset="1" stop-color="white"/></linearGradient><linearGradient id="paint10_linear_1020_6150" x1="17.0571" y1="2.61381" x2="11.193" y2="4.31971" gradientUnits="userSpaceOnUse"><stop stop-color="#231F20"/><stop offset="1" stop-color="white"/></linearGradient><linearGradient id="paint11_linear_1020_6150" x1="5.97511" y1="24.9788" x2="10.8796" y2="30.0964" gradientUnits="userSpaceOnUse"><stop stop-color="#231F20"/><stop offset="1" stop-color="white"/></linearGradient><linearGradient id="paint12_linear_1020_6150" x1="32.2976" y1="24.2074" x2="34.0034" y2="19.0186" gradientUnits="userSpaceOnUse"><stop stop-color="#231F20"/><stop offset="1" stop-color="white"/></linearGradient><linearGradient id="paint13_linear_1020_6150" x1="19.7289" y1="5.58096" x2="27.5908" y2="7.38113" gradientUnits="userSpaceOnUse"><stop stop-color="#231F20"/><stop offset="1" stop-color="white"/></linearGradient><linearGradient id="paint14_linear_1020_6150" x1="27.8907" y1="25.7069" x2="22.4008" y2="31.6154" gradientUnits="userSpaceOnUse"><stop stop-color="#231F20"/><stop offset="1" stop-color="white"/></linearGradient><linearGradient id="paint15_linear_1020_6150" x1="6.38209" y1="22.7162" x2="4.01009" y2="15.0075" gradientUnits="userSpaceOnUse"><stop stop-color="#231F20"/><stop offset="1" stop-color="white"/></linearGradient><linearGradient id="paint16_linear_1020_6150" x1="21.4477" y1="8.48077" x2="18.96" y2="10.9685" gradientUnits="userSpaceOnUse"><stop stop-color="#231F20"/><stop offset="1" stop-color="white"/></linearGradient><linearGradient id="paint17_linear_1020_6150" x1="8.03219" y1="19.7739" x2="11.4305" y2="20.6844" gradientUnits="userSpaceOnUse"><stop stop-color="#231F20"/><stop offset="1" stop-color="white"/></linearGradient><linearGradient id="paint18_linear_1020_6150" x1="24.5192" y1="25.7441" x2="23.6086" y2="22.3457" gradientUnits="userSpaceOnUse"><stop stop-color="#231F20"/><stop offset="1" stop-color="white"/></linearGradient><linearGradient id="paint19_linear_1020_6150" x1="19.3464" y1="22.7222" x2="20.8391" y2="20.6608" gradientUnits="userSpaceOnUse"><stop stop-color="#231F20"/><stop offset="1" stop-color="white"/></linearGradient><linearGradient id="paint20_linear_1020_6150" x1="14.2067" y1="21.8298" x2="11.2214" y2="23.2513" gradientUnits="userSpaceOnUse"><stop stop-color="#231F20"/><stop offset="1" stop-color="white"/></linearGradient><linearGradient id="paint21_linear_1020_6150" x1="13.1234" y1="16.8605" x2="14.0474" y2="18.7796" gradientUnits="userSpaceOnUse"><stop stop-color="#231F20"/><stop offset="1" stop-color="white"/></linearGradient><linearGradient id="paint22_linear_1020_6150" x1="17.422" y1="10.9334" x2="16.7822" y2="8.72996" gradientUnits="userSpaceOnUse"><stop stop-color="#231F20"/><stop offset="1" stop-color="white"/></linearGradient><linearGradient id="paint23_linear_1020_6150" x1="24.3165" y1="21.0219" x2="26.1646" y2="21.4483" gradientUnits="userSpaceOnUse"><stop stop-color="#231F20"/><stop offset="1" stop-color="white"/></linearGradient><linearGradient id="paint24_linear_1020_6150" x1="21.4162" y1="14.7789" x2="19.0706" y2="14.3524" gradientUnits="userSpaceOnUse"><stop stop-color="#231F20"/><stop offset="1" stop-color="white"/></linearGradient><clipPath id="clip0_1020_6150"><rect width="36" height="36" rx="18" fill="white"/></clipPath><clipPath id="clip1_1020_6150"><rect width="36" height="36" fill="white"/></clipPath></defs></svg>