<svg width="36" height="36" fill="none" xmlns="http://www.w3.org/2000/svg"><rect width="36" height="36" rx="18" fill="#F0B90B"/><path fill-rule="evenodd" clip-rule="evenodd" d="M18 5.51697L11.3688 9.34128L13.8068 10.7541L18 8.34257L22.1932 10.7541L24.6311 9.34128L18 5.51697ZM22.1932 12.7515L24.6311 14.1643V16.9899L20.4379 19.4014V24.2244L18 25.6373L15.5621 24.2244V19.4014L11.3688 16.9899V14.1643L13.8068 12.7515L18 15.163L22.1932 12.7515ZM24.6311 18.9873V21.8129L22.1932 23.2258V20.4001L24.6311 18.9873ZM22.1688 25.2231L26.3621 22.8116V17.9886L28.7999 16.5758V24.2244L22.1688 28.0487V25.2231ZM26.3621 13.1656L23.9241 11.7528L26.3621 10.34L28.7999 11.7528V14.5784L26.3621 15.9912V13.1656ZM15.5621 29.0718V26.2462L18 27.659L20.4379 26.2462V29.0718L18 30.4846L15.5621 29.0718ZM13.8068 23.2258L11.3688 21.8129V18.9873L13.8068 20.4001V23.2258ZM18 13.1656L15.5621 11.7528L18 10.34L20.4379 11.7528L18 13.1656ZM12.0758 11.7528L9.63787 13.1656V15.9912L7.19995 14.5784V11.7528L9.63787 10.34L12.0758 11.7528ZM7.19995 16.5758L9.63787 17.9886V22.8116L13.8311 25.2231V28.0487L7.19995 24.2244V16.5758Z" fill="white"/></svg>