<?xml version="1.0" encoding="UTF-8"?><svg xmlns="http://www.w3.org/2000/svg" xmlns:xlink="http://www.w3.org/1999/xlink" width="36px" height="36px" version="1.1"><g id="surface1"><path style="stroke:none;fill-rule:evenodd;fill:rgb(100%,23.137255%,50.196078%);fill-opacity:1" d="M 36 18.003906 L 33.339844 12.683594 L 25.976562 12.683594 L 29.660156 5.320312 L 27.003906 0 L 21.6875 0 L 18 7.367188 L 14.320312 0.0078125 L 9.003906 0.0078125 L 6.34375 5.324219 L 10.03125 12.691406 L 2.664062 12.691406 L 0 18.003906 L 2.660156 23.324219 L 10.023438 23.324219 L 6.339844 30.6875 L 8.996094 36 L 14.3125 36 L 18 28.632812 L 21.6875 36 L 27.003906 36 L 29.660156 30.6875 L 25.976562 23.324219 L 33.339844 23.324219 Z M 28.316406 5.320312 L 24.632812 12.683594 L 21.332031 12.683594 L 26.667969 2.027344 Z M 22.355469 1.347656 L 25.652344 1.347656 L 20.316406 12.011719 L 18.667969 8.714844 Z M 19.648438 13.363281 L 18 16.660156 L 12.332031 5.324219 L 13.980469 2.027344 Z M 7.6875 5.320312 L 9.671875 1.347656 L 12.96875 1.347656 L 10.988281 5.320312 L 16.992188 17.324219 L 13.691406 17.324219 Z M 3.332031 14.03125 L 10.699219 14.03125 L 12.347656 17.332031 L 1.683594 17.332031 Z M 3.332031 21.972656 L 1.683594 18.675781 L 12.347656 18.675781 L 10.699219 21.972656 Z M 13.691406 18.675781 L 16.992188 18.675781 L 11.320312 30.011719 L 8.023438 30.011719 Z M 13.644531 34.660156 L 9.671875 34.660156 L 8.023438 31.359375 L 11.996094 31.359375 L 18 19.351562 L 19.648438 22.652344 Z M 22.355469 34.660156 L 18.667969 27.292969 L 20.316406 23.992188 L 25.652344 34.660156 Z M 28.316406 30.6875 L 26.667969 33.980469 L 21.332031 23.316406 L 24.632812 23.316406 Z M 20.660156 21.972656 L 19.007812 18.675781 L 30.347656 18.675781 L 31.996094 21.972656 Z M 31.023438 17.332031 L 19.015625 17.332031 L 20.664062 14.03125 L 32.679688 14.03125 L 34.660156 18.003906 L 33.007812 21.304688 Z M 31.023438 17.332031 "/></g></svg>