<svg width="36" height="36" fill="none" xmlns="http://www.w3.org/2000/svg"><rect width="36" height="36" rx="18" fill="url(#paint0_linear_589_1535)"/><g clip-path="url(#clip0_589_1535)"><path d="M22.6051 7.90381L16.0597 13.9626C15.3821 14.591 14.5001 14.9384 13.5847 14.9428L11.6337 14.947L11.6274 7.90381H8.1001V28.0319H10.0237C11.0992 28.0319 12.103 27.4506 12.6292 26.4963C12.6334 26.4899 12.6355 26.4835 12.6397 26.4793C12.9891 25.8399 13.1638 24.5768 13.1301 23.7146C13.0543 21.7437 12.7429 21.2311 12.7429 21.2311C12.6776 22.5822 11.2928 22.6551 11.2928 22.6551C12.2777 21.6965 11.7411 20.9715 11.7411 20.9715C9.99635 22.237 9.56069 20.8857 9.52702 20.7634C9.58174 20.8106 10.0784 21.2333 11.0213 19.9163C12.0189 18.5244 13.349 16.2038 14.1951 15.6076C15.0431 15.0093 15.8472 15.0586 15.8472 15.0586C15.8472 15.0586 16.3102 14.4194 17.535 13.8875C18.7599 13.36 19.545 14.1342 19.545 14.1342C18.2928 15.1637 16.5922 16.8537 16.4974 19.275C16.4217 21.2353 20.5678 24.5983 19.8395 29.5653C20.2753 28.4373 20.4499 27.3071 20.3006 25.9086C20.1805 24.7806 19.4671 22.4235 19.4671 22.4235L23.4489 28.0297H27.8519L19.246 15.9829L27.8519 7.90381H22.6051Z" fill="white"/><path d="M14.5857 16.5705C14.3079 17.0402 14.3079 17.1839 14.3079 17.1839C14.3079 17.1839 15.2802 17.0167 15.5433 15.8392C15.5453 15.8392 14.9224 16.0021 14.5857 16.5705Z" fill="white"/></g><defs><linearGradient id="paint0_linear_589_1535" x1="53.9998" y1="40.5911" x2="26.0588" y2="-8.22068" gradientUnits="userSpaceOnUse"><stop stop-color="#E40C5B"/><stop offset="1" stop-color="#FF4C3B"/></linearGradient><clipPath id="clip0_589_1535"><rect width="19.8" height="21.6615" fill="white" transform="translate(8.1001 7.90381)"/></clipPath></defs></svg>