<svg width="36" height="36" fill="none" xmlns="http://www.w3.org/2000/svg"><rect width="36" height="36" rx="18" fill="black"/><path d="M27.5711 11.4562C27.2308 11.1878 26.8249 10.8213 26.0853 10.7296C25.3915 10.638 24.6846 11.1027 24.2068 11.4104C23.7289 11.718 22.8257 12.6213 22.4526 12.8962C22.0795 13.1711 21.1239 13.4264 19.5857 14.3493C18.0475 15.2722 12.0126 19.1471 12.0126 19.1471L13.5835 19.1667L6.57985 22.7733H7.28022L6.27222 23.5391C6.27222 23.5391 7.1624 23.7747 7.90858 23.3035V23.5195C7.90858 23.5195 16.2475 20.2336 17.8577 21.0846L16.8759 21.3726C16.9609 21.3726 18.5449 21.4773 18.5449 21.4773C18.5449 21.4773 18.5973 22.4656 19.5529 23.1006C20.5086 23.7289 20.5282 24.0758 20.5282 24.0758C20.5282 24.0758 20.0308 24.2787 20.0308 24.534C20.0308 24.534 20.7639 24.3115 21.4446 24.3311C22.1253 24.3507 22.7209 24.534 22.7209 24.534C22.7209 24.534 22.6686 24.2591 22.0075 24.0758C21.3399 23.886 20.6919 23.1726 20.3711 22.7798C20.0504 22.3871 19.8279 21.6867 20.1028 20.9864C20.3319 20.3907 21.1304 20.0635 22.7799 19.2126C24.7239 18.2046 25.1689 17.4584 25.4439 16.8758C25.7188 16.2933 26.1246 15.1347 26.3537 14.5915C26.6417 13.8911 26.9951 13.518 27.2897 13.2955C27.5777 13.0729 28.8933 12.582 28.8933 12.582C28.8933 12.582 27.8919 11.7115 27.5711 11.4562Z" fill="white"/></svg>