<svg width="36" height="36" fill="none" xmlns="http://www.w3.org/2000/svg"><rect width="36" height="36" rx="18" fill="#0D1126"/><g clip-path="url(#clip0_589_1543)"><path fill-rule="evenodd" clip-rule="evenodd" d="M17.8294 5.83911C12.8073 5.84042 8.73645 9.9113 8.73511 14.9334C8.73571 15.5078 8.78957 16.0811 8.89602 16.6456L10.0727 15.8411C12.138 14.4243 15.488 14.4243 17.5532 15.8411L18.7852 16.6864L19.4552 17.1451C21.3163 18.4203 24.3325 18.4203 26.1912 17.1451L26.7388 16.7705C27.7481 11.8476 24.5755 7.03863 19.6526 6.02932C19.0542 5.90665 18.445 5.84452 17.8342 5.84392L17.8294 5.83911Z" fill="#F2B705"/><path fill-rule="evenodd" clip-rule="evenodd" d="M22.9421 20.3967C21.6434 20.4215 20.3667 20.0586 19.2751 19.3544L17.3756 18.0528C15.2673 16.7591 12.6109 16.7591 10.5026 18.0528L9.2755 18.8934C9.03214 19.0598 8.6999 18.9974 8.53345 18.7541C8.36699 18.5107 8.42935 18.1785 8.67272 18.012L9.89986 17.1715C12.3734 15.6346 15.5048 15.6346 17.9783 17.1715L19.8779 18.4731C21.7573 19.6256 24.1245 19.6256 26.004 18.4731L26.7244 17.9808C26.9678 17.8144 27.3 17.8767 27.4664 18.1201C27.6329 18.3635 27.5705 18.6957 27.3272 18.8621L26.6067 19.3544C25.5152 20.0568 24.2399 20.4195 22.9421 20.3967Z" fill="#53CBC8"/><path fill-rule="evenodd" clip-rule="evenodd" d="M13.9007 24.2173V19.0782C13.8962 18.97 13.9003 18.8616 13.9126 18.754C13.9467 18.4614 14.1944 18.2406 14.489 18.2401C14.7741 18.2488 15.0075 18.4698 15.0317 18.754C15.0536 18.9324 15.06 19.1124 15.0509 19.292V29.5389C15.0629 29.8702 14.8041 30.1486 14.4727 30.1606C14.4693 30.1607 14.466 30.1609 14.4626 30.1609C14.1368 30.1427 13.8874 29.8639 13.9056 29.5381C13.9061 29.5288 13.9069 29.5194 13.9078 29.5101V26.0928L13.9007 24.2173Z" fill="#53CBC8"/><path fill-rule="evenodd" clip-rule="evenodd" d="M12.82 21.631V24.1837C12.82 24.6207 12.5799 24.9041 12.2557 24.9041C11.9315 24.9041 11.6745 24.5992 11.6721 24.1837V19.0735C11.6721 18.6268 11.9339 18.3242 12.2725 18.353C12.6111 18.3818 12.8128 18.6388 12.8152 19.0879C12.82 19.9283 12.82 20.7784 12.82 21.631Z" fill="#53CBC8"/><path fill-rule="evenodd" clip-rule="evenodd" d="M16.1364 21.6262V19.8347C16.1364 19.4192 16.3574 19.1503 16.6863 19.1503C17.0268 19.1662 17.2899 19.4552 17.2739 19.7957C17.2736 19.8039 17.273 19.8121 17.2723 19.8203C17.2835 21.0402 17.2835 22.261 17.2723 23.4825C17.2723 23.8979 17.0322 24.1501 16.6887 24.1453C16.3453 24.1405 16.1364 23.8859 16.134 23.4608V21.6285L16.1364 21.6262Z" fill="#53CBC8"/><path fill-rule="evenodd" clip-rule="evenodd" d="M9.44602 21.9961V20.2022C9.44602 19.7843 9.66694 19.5154 9.99595 19.5154C10.3364 19.5313 10.5995 19.8203 10.5836 20.1608C10.5831 20.169 10.5826 20.1772 10.5819 20.1854C10.5931 21.4069 10.5931 22.6285 10.5819 23.85C10.5819 24.2654 10.3418 24.5152 10.0008 24.5128C9.65975 24.5104 9.44602 24.2535 9.4436 23.826V21.9961H9.44602Z" fill="#53CBC8"/><path fill-rule="evenodd" clip-rule="evenodd" d="M18.9245 20.4735C19.2361 20.4735 19.4888 20.7262 19.4888 21.0379V22.0128C19.4888 22.3245 19.2361 22.5771 18.9245 22.5771C18.6128 22.5771 18.3601 22.3245 18.3601 22.0128V21.0379C18.3601 20.7262 18.6128 20.4735 18.9245 20.4735Z" fill="#53CBC8"/><path fill-rule="evenodd" clip-rule="evenodd" d="M21.1579 21.3284C21.4695 21.3284 21.7222 21.581 21.7222 21.8927V27.3656C21.7222 27.6773 21.4695 27.93 21.1579 27.93C20.8462 27.93 20.5935 27.6773 20.5935 27.3656V21.8927C20.5935 21.581 20.8462 21.3284 21.1579 21.3284Z" fill="#53CBC8"/><path fill-rule="evenodd" clip-rule="evenodd" d="M23.3768 21.5398C23.6885 21.5398 23.9412 21.7925 23.9412 22.1041V26.7557C23.9412 27.0674 23.6885 27.32 23.3768 27.32C23.0652 27.32 22.8125 27.0674 22.8125 26.7557V22.1041C22.8125 21.7925 23.0652 21.5398 23.3768 21.5398Z" fill="#53CBC8"/><path fill-rule="evenodd" clip-rule="evenodd" d="M25.6268 21.009C25.9385 21.009 26.1912 21.2617 26.1912 21.5734V23.5786C26.1912 23.8903 25.9385 24.1429 25.6268 24.1429C25.3152 24.1429 25.0625 23.8903 25.0625 23.5786V21.5734C25.0625 21.2617 25.3152 21.009 25.6268 21.009Z" fill="#53CBC8"/></g><defs><clipPath id="clip0_589_1543"><rect width="25.2" height="25.2" fill="white" transform="translate(5.3999 5.40002)"/></clipPath></defs></svg>