<svg width="36" height="36" fill="none" xmlns="http://www.w3.org/2000/svg"><rect width="36" height="36" rx="18" fill="#0D1126"/><path d="M20.5309 6.67265C15.9463 6.67265 12.2296 10.3893 12.2296 14.9739H12.2298C12.2298 14.9797 12.2295 14.9854 12.2298 14.9913L12.2305 15.0043C12.242 15.2206 12.4223 15.3895 12.6391 15.3895H28.4227C28.6395 15.3895 28.8199 15.2206 28.8314 15.0043L28.832 14.9913C28.8323 14.9854 28.832 14.9797 28.832 14.9739H28.8322C28.8322 10.3893 25.1155 6.67265 20.5309 6.67265Z" fill="#53CBC8"/><path d="M6.73449 24.2424C6.73449 24.5213 6.50833 24.7476 6.22927 24.7476C5.95028 24.7476 5.72412 24.5213 5.72412 24.2424C5.72412 23.9634 5.95028 23.7372 6.22927 23.7372C6.50833 23.7372 6.73449 23.9634 6.73449 24.2424Z" fill="#E1147B"/><path d="M27.874 21.4473H10.9378C10.561 21.4473 10.3219 21.8495 10.5001 22.1815C10.5028 22.1867 10.5057 22.192 10.5086 22.1972C10.5951 22.358 10.7637 22.4576 10.9463 22.4576H27.8654C28.048 22.4576 28.2166 22.358 28.3032 22.1972C28.306 22.192 28.3089 22.1867 28.3117 22.1815C28.4898 21.8495 28.2507 21.4473 27.874 21.4473Z" fill="#E1147B"/><path d="M30.1246 16.8676H10.9372C10.6512 16.8676 10.4258 17.1082 10.4405 17.3938C10.4408 17.3991 10.4411 17.4043 10.4414 17.4096C10.4554 17.6726 10.6746 17.8779 10.9381 17.8779H30.1237C30.3871 17.8779 30.6064 17.6726 30.6203 17.4096C30.6206 17.4043 30.6209 17.3991 30.6212 17.3938C30.6359 17.1082 30.4106 16.8676 30.1246 16.8676Z" fill="#E1147B"/><path d="M22.8996 28.317H14.2528C13.7275 28.317 13.562 29.0233 14.031 29.2599C14.0415 29.2652 14.052 29.2704 14.0626 29.2758C14.1314 29.3101 14.2075 29.3274 14.2845 29.3274H22.8679C22.9449 29.3274 23.021 29.3101 23.0898 29.2758C23.1004 29.2704 23.1109 29.2652 23.1214 29.2599C23.5904 29.0233 23.4249 28.317 22.8996 28.317Z" fill="#E1147B"/><path d="M28.183 26.0271H19.5361C19.0108 26.0271 18.8453 26.7333 19.3143 26.97C19.3248 26.9752 19.3354 26.9805 19.3459 26.9859C19.4147 27.0202 19.4908 27.0375 19.5678 27.0375H28.1513C28.2282 27.0375 28.3044 27.0202 28.3731 26.9859C28.3837 26.9805 28.3942 26.9752 28.4047 26.97C28.8736 26.7333 28.7082 26.0271 28.183 26.0271Z" fill="#E1147B"/><path d="M16.3922 24.5886C16.3873 24.5834 16.3825 24.5781 16.3775 24.5729C16.0809 24.2559 16.3083 23.7372 16.7424 23.7372H30.7765C31.2106 23.7372 31.4379 24.2559 31.1414 24.5729C31.1365 24.5781 31.1316 24.5834 31.1267 24.5886C31.032 24.6895 30.9002 24.7476 30.7619 24.7476H16.757C16.6186 24.7476 16.487 24.6895 16.3922 24.5886Z" fill="#E1147B"/><path d="M8.03371 23.7372H14.7353C15.2606 23.7372 15.4261 24.4434 14.9571 24.6801C14.9466 24.6853 14.9361 24.6906 14.9255 24.6959C14.8567 24.7303 14.7806 24.7476 14.7037 24.7476H8.06539C7.98851 24.7476 7.91231 24.7303 7.84351 24.6959C7.83298 24.6906 7.82244 24.6853 7.81198 24.6801C7.34303 24.4434 7.50848 23.7372 8.03371 23.7372Z" fill="#E1147B"/><path d="M9.6383 17.3727C9.6383 17.6517 9.41214 17.8778 9.13307 17.8778C8.85408 17.8778 8.62793 17.6517 8.62793 17.3727C8.62793 17.0937 8.85408 16.8675 9.13307 16.8675C9.41214 16.8675 9.6383 17.0937 9.6383 17.3727Z" fill="#E1147B"/><path d="M21.5471 19.7991C21.5485 19.7939 21.5499 19.7885 21.5513 19.7833C21.6368 19.4678 21.3975 19.1575 21.0706 19.1575H7.03468C6.70774 19.1575 6.46845 19.4678 6.55397 19.7833C6.55534 19.7885 6.55679 19.7939 6.55824 19.7991C6.61742 20.0164 6.81372 20.1678 7.03888 20.1678H21.0664C21.2916 20.1678 21.4878 20.0164 21.5471 19.7991Z" fill="#E1147B"/><path d="M5.73485 19.6626C5.73485 19.9416 5.5087 20.1678 5.22963 20.1678C4.95064 20.1678 4.72449 19.9416 4.72449 19.6626C4.72449 19.3836 4.95064 19.1575 5.22963 19.1575C5.5087 19.1575 5.73485 19.3836 5.73485 19.6626Z" fill="#E1147B"/><path d="M9.6383 21.9524C9.6383 22.2314 9.41214 22.4576 9.13307 22.4576C8.85408 22.4576 8.62793 22.2314 8.62793 21.9524C8.62793 21.6734 8.85408 21.4473 9.13307 21.4473C9.41214 21.4473 9.6383 21.6734 9.6383 21.9524Z" fill="#E1147B"/><path d="M18.2368 26.5323C18.2368 26.8113 18.0107 27.0375 17.7316 27.0375C17.4526 27.0375 17.2264 26.8113 17.2264 26.5323C17.2264 26.2533 17.4526 26.0271 17.7316 26.0271C18.0107 26.0271 18.2368 26.2533 18.2368 26.5323Z" fill="#E1147B"/><path d="M12.9535 28.8222C12.9535 29.1012 12.7273 29.3274 12.4483 29.3274C12.1693 29.3274 11.9431 29.1012 11.9431 28.8222C11.9431 28.5433 12.1693 28.317 12.4483 28.317C12.7273 28.317 12.9535 28.5433 12.9535 28.8222Z" fill="#E1147B"/></svg>