<svg width="32" height="32" fill="none" xmlns="http://www.w3.org/2000/svg"><rect width="32" height="32" rx="16" fill="black"/><path fill-rule="evenodd" clip-rule="evenodd" d="M6.4 7.40002C6.4 6.84774 6.84772 6.40002 7.4 6.40002H11.788C12.3403 6.40002 12.788 6.84774 12.788 7.40002V11.8C12.788 12.3523 12.3403 12.8 11.788 12.8H7.4C6.84772 12.8 6.4 12.3523 6.4 11.8V7.40002ZM6.4 20.2C6.4 19.6477 6.84772 19.2 7.4 19.2H11.788C12.3403 19.2 12.788 19.6477 12.788 20.2V24.6C12.788 25.1523 12.3403 25.6 11.788 25.6H7.4C6.84772 25.6 6.4 25.1523 6.4 24.6V20.2ZM20.212 6.40002C19.6597 6.40002 19.212 6.84774 19.212 7.40002V11.8C19.212 12.3523 19.6597 12.8 20.212 12.8H24.6C25.1523 12.8 25.6 12.3523 25.6 11.8V7.40002C25.6 6.84774 25.1523 6.40002 24.6 6.40002H20.212ZM12.815 13.8C12.815 13.2477 13.2627 12.8 13.815 12.8H18.203C18.7553 12.8 19.203 13.2477 19.203 13.8V18.2C19.203 18.7523 18.7553 19.2 18.203 19.2H13.815C13.2627 19.2 12.815 18.7523 12.815 18.2V13.8ZM20.212 19.2C19.6597 19.2 19.212 19.6477 19.212 20.2V24.6C19.212 25.1523 19.6597 25.6 20.212 25.6H24.6C25.1523 25.6 25.6 25.1523 25.6 24.6V20.2C25.6 19.6477 25.1523 19.2 24.6 19.2H20.212Z" fill="white"/></svg>