<svg width="36" height="36" fill="none" xmlns="http://www.w3.org/2000/svg"><path d="M18 10.6151C20.5277 10.6151 22.5768 9.42283 22.5768 7.95204C22.5768 6.48125 20.5277 5.28894 18 5.28894C15.4722 5.28894 13.4231 6.48125 13.4231 7.95204C13.4231 9.42283 15.4722 10.6151 18 10.6151Z" fill="white"/><path d="M18 30.6739C20.5277 30.6739 22.5768 29.4815 22.5768 28.0108C22.5768 26.54 20.5277 25.3477 18 25.3477C15.4722 25.3477 13.4231 26.54 13.4231 28.0108C13.4231 29.4815 15.4722 30.6739 18 30.6739Z" fill="white"/><path d="M11.6208 14.2983C12.8846 12.1092 12.8766 9.73847 11.6029 9.00307C10.3292 8.26768 8.27202 9.44612 7.00816 11.6352C5.74429 13.8243 5.7523 16.195 7.02604 16.9304C8.29978 17.6658 10.3569 16.4874 11.6208 14.2983Z" fill="white"/><path d="M28.9919 24.3276C30.2557 22.1385 30.2477 19.7678 28.974 19.0324C27.7003 18.297 25.6431 19.4754 24.3793 21.6645C23.1154 23.8536 23.1234 26.2243 24.3971 26.9597C25.6709 27.6951 27.728 26.5167 28.9919 24.3276Z" fill="white"/><path d="M11.6029 26.9597C12.8766 26.2243 12.8846 23.8535 11.6208 21.6645C10.3569 19.4754 8.29978 18.2969 7.02604 19.0323C5.7523 19.7677 5.74429 22.1385 7.00816 24.3276C8.27202 26.5166 10.3292 27.6951 11.6029 26.9597Z" fill="white"/><path d="M28.9739 16.9305C30.2476 16.1951 30.2556 13.8244 28.9918 11.6353C27.7279 9.44622 25.6708 8.26777 24.397 9.00317C23.1233 9.73856 23.1153 12.1093 24.3791 14.2984C25.643 16.4875 27.7001 17.6659 28.9739 16.9305Z" fill="white"/></svg>