<svg width="36" height="36" fill="none" xmlns="http://www.w3.org/2000/svg"><path d="M36 0H0V36H36V0Z" fill="#7B3FE4"/><path d="M23.958 14.0885C23.5262 13.8337 22.965 13.8337 22.4901 14.0885L19.1226 16.0418L16.8344 17.3156L13.4668 19.2688C13.0351 19.5235 12.4738 19.5235 11.999 19.2688L9.32217 17.7402C8.89046 17.4854 8.58826 17.0183 8.58826 16.5088V13.4941C8.58826 12.9845 8.84731 12.5175 9.32217 12.2627L11.9557 10.7765C12.3875 10.5218 12.9487 10.5218 13.4237 10.7765L16.0572 12.2627C16.489 12.5175 16.7912 12.9845 16.7912 13.4941V15.4473L19.0794 14.131V12.1777C19.0794 11.6682 18.8203 11.2011 18.3455 10.9464L13.4668 8.14395C13.0351 7.88919 12.4738 7.88919 11.999 8.14395L7.03399 10.9464C6.55909 11.2011 6.30005 11.6682 6.30005 12.1777V17.8251C6.30005 18.3346 6.55909 18.8017 7.03399 19.0565L11.999 21.8589C12.4307 22.1137 12.9919 22.1137 13.4668 21.8589L16.8344 19.9481L19.1226 18.6319L22.4901 16.7211C22.9218 16.4664 23.4831 16.4664 23.958 16.7211L26.5916 18.2073C27.0233 18.462 27.3255 18.9291 27.3255 19.4387V22.4534C27.3255 22.9629 27.0665 23.43 26.5916 23.6848L23.958 25.2133C23.5262 25.4681 22.965 25.4681 22.4901 25.2133L19.8565 23.7272C19.4248 23.4724 19.1226 23.0054 19.1226 22.4958V20.5426L16.8344 21.8589V23.8121C16.8344 24.3217 17.0934 24.7887 17.5683 25.0435L22.5333 27.8459C22.965 28.1007 23.5262 28.1007 24.0011 27.8459L28.9661 25.0435C29.3979 24.7887 29.7001 24.3217 29.7001 23.8121V18.1648C29.7001 17.6553 29.441 17.1882 28.9661 16.9334L23.958 14.0885Z" fill="white"/></svg>