<svg xmlns="http://www.w3.org/2000/svg" xmlns:xlink="http://www.w3.org/1999/xlink" width="36px" height="36px" version="1.1"><g id="surface1"><path style="stroke:none;fill-rule:nonzero;fill:rgb(100%,57.647059%,11.764706%);fill-opacity:1" d="M 23.492188 4.953125 C 23.492188 7.683594 21.039062 9.898438 18.011719 9.898438 C 14.980469 9.898438 12.527344 7.683594 12.527344 4.953125 C 12.527344 2.222656 14.980469 0.0117188 18.011719 0.0117188 C 21.039062 0.0117188 23.492188 2.222656 23.492188 4.953125 Z M 23.492188 4.953125 "/><path style="stroke:none;fill-rule:nonzero;fill:rgb(100%,57.647059%,11.764706%);fill-opacity:1" d="M 33.253906 20.238281 C 30.628906 18.875 27.277344 19.6875 25.765625 22.054688 C 25.246094 22.867188 25.011719 23.761719 25.035156 24.636719 C 25.089844 26.816406 22.914062 27.949219 20.851562 26.824219 C 20.769531 26.777344 20.683594 26.734375 20.601562 26.695312 C 18.511719 25.640625 18.511719 23.402344 20.601562 22.351562 C 22.3125 21.515625 23.476562 19.878906 23.476562 18 C 23.476562 17.960938 23.476562 17.925781 23.472656 17.886719 L 23.476562 17.890625 C 23.421875 15.707031 25.601562 14.574219 27.667969 15.710938 C 29.324219 16.617188 31.464844 16.703125 33.261719 15.765625 C 35.882812 14.398438 36.78125 11.375 35.265625 9.007812 C 33.75 6.644531 30.398438 5.835938 27.773438 7.203125 C 25.980469 8.136719 24.996094 9.847656 25.035156 11.59375 C 25.089844 13.773438 22.917969 14.90625 20.855469 13.78125 C 20.023438 13.320312 19.042969 13.054688 17.996094 13.054688 C 16.949219 13.054688 15.96875 13.320312 15.136719 13.78125 C 13.078125 14.898438 10.914062 13.769531 10.96875 11.597656 C 11.011719 9.847656 10.019531 8.132812 8.222656 7.195312 C 5.597656 5.835938 2.242188 6.652344 0.734375 9.019531 C -0.773438 11.386719 0.128906 14.410156 2.753906 15.769531 C 4.546875 16.699219 6.683594 16.613281 8.335938 15.710938 C 10.398438 14.582031 12.570312 15.710938 12.515625 17.890625 L 12.519531 17.886719 C 12.519531 17.925781 12.515625 17.960938 12.515625 18 C 12.515625 19.882812 13.675781 21.515625 15.390625 22.351562 C 17.480469 23.402344 17.480469 25.644531 15.386719 26.695312 C 15.300781 26.738281 15.21875 26.78125 15.136719 26.828125 C 13.078125 27.945312 10.914062 26.8125 10.96875 24.640625 C 10.992188 23.761719 10.757812 22.863281 10.234375 22.046875 C 8.714844 19.683594 5.363281 18.878906 2.742188 20.246094 C 0.117188 21.613281 -0.777344 24.636719 0.738281 27 C 2.257812 29.367188 5.609375 30.171875 8.230469 28.804688 C 8.265625 28.785156 8.296875 28.765625 8.332031 28.746094 L 8.328125 28.75 C 10.394531 27.621094 12.566406 28.753906 12.511719 30.933594 L 12.511719 30.929688 C 12.511719 30.96875 12.507812 31.011719 12.507812 31.050781 C 12.511719 33.78125 14.96875 35.992188 17.996094 35.988281 C 21.027344 35.988281 23.476562 33.769531 23.476562 31.039062 C 23.476562 31.003906 23.472656 30.96875 23.472656 30.933594 C 23.417969 28.75 25.597656 27.617188 27.667969 28.75 L 27.664062 28.746094 C 27.703125 28.769531 27.738281 28.789062 27.777344 28.808594 C 30.398438 30.171875 33.75 29.359375 35.265625 26.996094 C 36.777344 24.628906 35.875 21.605469 33.253906 20.242188 Z M 33.253906 20.238281 "/></g></svg>