<svg width="36" height="36" fill="none" xmlns="http://www.w3.org/2000/svg"><rect width="36" height="36" rx="18" fill="#EBE5F5"/><path d="M24.0916 10.3475C21.8528 10.9853 18.5492 12.3193 15.5232 15.0538C12.4822 17.9159 14.5467 20.4684 14.568 20.4938C14.568 20.4938 13.4535 18.4384 16.149 15.9059C16.1832 15.876 19.6241 12.9043 24.6283 11.4789C25.2664 11.2971 25.9113 11.1458 26.5455 11.0292L26.5895 11.0212L27.3951 9.71545L27.1974 9.72942C27.1849 9.73049 25.9276 9.82443 24.0916 10.3475Z" fill="#5928B1"/><path d="M27.5356 6.68808C27.0201 6.25422 26.5052 5.91088 26.5001 5.90746L26.469 5.88721L26.4324 5.89152C26.4186 5.89331 25.0294 6.06423 23.1162 6.60931C19.6932 7.58424 15.0897 9.58379 12.5969 13.5703C11.4129 15.3812 12.3659 17.548 12.3659 17.548L12.3371 16.9965C12.334 16.938 12.1705 11.0962 24.1449 7.68474C25.1931 7.38607 26.3188 7.11092 27.4914 6.86615L27.6966 6.82342L27.5356 6.68808Z" fill="#764BC4"/><path d="M28.2594 7.45079C28.244 7.45243 26.6687 7.62008 24.474 8.24511C22.1514 8.90692 18.7693 10.1902 15.8489 12.5444C14.1269 13.8822 13.037 15.4961 12.8585 16.9727C12.771 17.6932 13.6155 19.2228 13.6155 19.2228L13.438 18.6795C13.4299 18.6548 12.6752 16.1801 16.4993 13.3088C18.6421 11.6996 20.8752 10.5983 23.5264 9.84313C24.8931 9.45377 26.2027 9.19801 27.6504 8.92747L27.7014 8.91794L27.7235 8.87074C27.8328 8.63624 28.3543 7.60936 28.3598 7.59908L28.4444 7.43188L28.2594 7.45079Z" fill="#764BC4"/><path d="M11.5231 14.964C11.6674 12.6454 13.4233 10.503 16.7461 8.59443C18.4972 7.50114 20.4546 6.6422 22.5637 6.04129C24.3526 5.53165 25.8646 5.37948 25.8646 5.37948L24.6486 4.5C24.6374 4.50134 23.5166 4.63906 21.915 5.09541C11.6447 8.02121 10.3719 13.0623 10.4855 15.0887C10.6845 18.6216 14.8447 21.1341 14.8447 21.1341C14.8447 21.1341 11.3084 18.4188 11.5231 14.964Z" fill="#BBA5E1"/><path d="M11.6504 25.6525C13.8893 25.0147 17.1928 23.6807 20.2189 20.9462C23.2599 18.0841 21.1954 15.5315 21.1741 15.5062C21.1741 15.5062 22.2885 17.5616 19.593 20.0941C19.5588 20.124 16.118 23.0956 11.1138 24.5211C10.4757 24.7029 9.83069 24.8542 9.1966 24.9707L9.15254 24.9788L8.34692 26.2845L8.54468 26.2706C8.5572 26.2695 9.81448 26.1756 11.6504 25.6525Z" fill="#5928B1"/><path d="M8.20647 29.3119C8.72194 29.7458 9.23682 30.0892 9.24198 30.0926L9.27307 30.1128L9.30962 30.1085C9.32346 30.1067 10.7126 29.9358 12.6258 29.3907C16.0488 28.4158 20.6524 26.4162 23.1451 22.4297C24.3292 20.6188 23.3762 18.452 23.3762 18.452L23.4049 19.0035C23.408 19.062 23.5716 24.9038 11.5971 28.3153C10.5489 28.6139 9.42323 28.8891 8.25068 29.1339L8.04541 29.1766L8.20647 29.3119Z" fill="#764BC4"/><path d="M7.48254 28.5492C7.49802 28.5476 9.0733 28.38 11.2679 27.7549C13.5906 27.0931 16.9727 25.8098 19.8931 23.4556C21.6151 22.1179 22.705 20.5039 22.8834 19.0274C22.971 18.3068 22.1265 16.7772 22.1265 16.7772L22.304 17.3205C22.3121 17.3452 23.0668 19.8199 19.2426 22.6912C17.0999 24.3004 14.8668 25.4017 12.2156 26.1569C10.8488 26.5462 9.53925 26.802 8.09158 27.0726L8.0406 27.0821L8.01849 27.1293C7.90915 27.3638 7.38764 28.3907 7.38219 28.401L7.29761 28.5681L7.48254 28.5492Z" fill="#764BC4"/><path d="M24.219 21.036C24.0747 23.3547 22.3188 25.497 18.9959 27.4057C17.2448 28.4989 15.2875 29.3578 13.1783 29.9588C11.3895 30.4684 9.87744 30.6206 9.87744 30.6206L11.0935 31.5001C11.1047 31.4987 12.2255 31.361 13.8271 30.9047C24.0974 27.9788 25.3702 22.9378 25.2565 20.9114C25.0576 17.3785 20.8973 14.866 20.8973 14.866C20.8973 14.866 24.4337 17.5812 24.219 21.036Z" fill="#BBA5E1"/><path d="M24.0916 10.3475C21.8528 10.9853 18.5492 12.3193 15.5232 15.0538C12.4822 17.9159 14.5467 20.4684 14.568 20.4938C14.568 20.4938 13.4535 18.4384 16.149 15.9059C16.1832 15.876 19.6241 12.9043 24.6283 11.4789C25.2664 11.2971 25.9113 11.1458 26.5455 11.0292L26.5895 11.0212L27.3951 9.71545L27.1974 9.72942C27.1849 9.73049 25.9276 9.82443 24.0916 10.3475Z" fill="#5928B1"/><path d="M27.5356 6.68808C27.0201 6.25422 26.5052 5.91088 26.5001 5.90746L26.469 5.88721L26.4324 5.89152C26.4186 5.89331 25.0294 6.06423 23.1162 6.60931C19.6932 7.58424 15.0897 9.58379 12.5969 13.5703C11.4129 15.3812 12.3659 17.548 12.3659 17.548L12.3371 16.9965C12.334 16.938 12.1705 11.0962 24.1449 7.68474C25.1931 7.38607 26.3188 7.11092 27.4914 6.86615L27.6966 6.82342L27.5356 6.68808Z" fill="#764BC4"/><path d="M28.2594 7.45079C28.244 7.45243 26.6687 7.62008 24.474 8.24511C22.1514 8.90692 18.7693 10.1902 15.8489 12.5444C14.1269 13.8822 13.037 15.4961 12.8585 16.9727C12.771 17.6932 13.6155 19.2228 13.6155 19.2228L13.438 18.6795C13.4299 18.6548 12.6752 16.1801 16.4993 13.3088C18.6421 11.6996 20.8752 10.5983 23.5264 9.84313C24.8931 9.45377 26.2027 9.19801 27.6504 8.92747L27.7014 8.91794L27.7235 8.87074C27.8328 8.63624 28.3543 7.60936 28.3598 7.59908L28.4444 7.43188L28.2594 7.45079Z" fill="#764BC4"/><path d="M11.5231 14.964C11.6674 12.6454 13.4233 10.503 16.7461 8.59443C18.4972 7.50114 20.4546 6.6422 22.5637 6.04129C24.3526 5.53165 25.8646 5.37948 25.8646 5.37948L24.6486 4.5C24.6374 4.50134 23.5166 4.63906 21.915 5.09541C11.6447 8.02121 10.3719 13.0623 10.4855 15.0887C10.6845 18.6216 14.8447 21.1341 14.8447 21.1341C14.8447 21.1341 11.3084 18.4188 11.5231 14.964Z" fill="#BBA5E1"/><path d="M11.6504 25.6525C13.8893 25.0147 17.1928 23.6807 20.2189 20.9462C23.2599 18.0841 21.1954 15.5315 21.1741 15.5062C21.1741 15.5062 22.2885 17.5616 19.593 20.0941C19.5588 20.124 16.118 23.0956 11.1138 24.5211C10.4757 24.7029 9.83069 24.8542 9.1966 24.9707L9.15254 24.9788L8.34692 26.2845L8.54468 26.2706C8.5572 26.2695 9.81448 26.1756 11.6504 25.6525Z" fill="#5928B1"/><path d="M8.20647 29.3119C8.72194 29.7458 9.23682 30.0892 9.24198 30.0926L9.27307 30.1128L9.30962 30.1085C9.32346 30.1067 10.7126 29.9358 12.6258 29.3907C16.0488 28.4158 20.6524 26.4162 23.1451 22.4297C24.3292 20.6188 23.3762 18.452 23.3762 18.452L23.4049 19.0035C23.408 19.062 23.5716 24.9038 11.5971 28.3153C10.5489 28.6139 9.42323 28.8891 8.25068 29.1339L8.04541 29.1766L8.20647 29.3119Z" fill="#764BC4"/><path d="M7.48254 28.5492C7.49802 28.5476 9.0733 28.38 11.2679 27.7549C13.5906 27.0931 16.9727 25.8098 19.8931 23.4556C21.6151 22.1179 22.705 20.5039 22.8834 19.0274C22.971 18.3068 22.1265 16.7772 22.1265 16.7772L22.304 17.3205C22.3121 17.3452 23.0668 19.8199 19.2426 22.6912C17.0999 24.3004 14.8668 25.4017 12.2156 26.1569C10.8488 26.5462 9.53925 26.802 8.09158 27.0726L8.0406 27.0821L8.01849 27.1293C7.90915 27.3638 7.38764 28.3907 7.38219 28.401L7.29761 28.5681L7.48254 28.5492Z" fill="#764BC4"/><path d="M24.219 21.036C24.0747 23.3547 22.3188 25.497 18.9959 27.4057C17.2448 28.4989 15.2875 29.3578 13.1783 29.9588C11.3895 30.4684 9.87744 30.6206 9.87744 30.6206L11.0935 31.5001C11.1047 31.4987 12.2255 31.361 13.8271 30.9047C24.0974 27.9788 25.3702 22.9378 25.2565 20.9114C25.0576 17.3785 20.8973 14.866 20.8973 14.866C20.8973 14.866 24.4337 17.5812 24.219 21.036Z" fill="#BBA5E1"/></svg>